<svg xmlns="http://www.w3.org/2000/svg" xmlns:xlink="http://www.w3.org/1999/xlink" version="1.1" width="256" height="256" viewBox="0 0 256 256" xml:space="preserve">

<defs>
</defs>
<g style="stroke: none; stroke-width: 0; stroke-dasharray: none; stroke-linecap: butt; stroke-linejoin: miter; stroke-miterlimit: 10; fill: none; fill-rule: nonzero; opacity: 1;" transform="translate(1.4065934065934016 1.4065934065934016) scale(2.81 2.81)" >
	<path d="M 45 0 C 20.147 0 0 20.147 0 45 c 0 24.853 20.147 45 45 45 c 24.853 0 45 -20.147 45 -45 C 90 20.147 69.853 0 45 0 z M 67.98 59.847 h -5.47 c -2.086 0 -2.698 -1.664 -6.407 -5.373 c -3.246 -3.13 -4.637 -3.535 -5.447 -3.535 c -1.102 0 -1.431 0.311 -1.431 1.875 v 4.905 c 0 1.346 -0.43 2.128 -3.907 2.128 c -5.795 0 -12.164 -3.519 -16.684 -10.009 C 21.854 40.335 20 33.148 20 31.7 c 0 -0.811 0.312 -1.547 1.875 -1.547 h 5.47 c 1.398 0 1.923 0.612 2.448 2.127 c 2.675 7.793 7.186 14.604 9.04 14.604 c 0.695 0 1.015 -0.321 1.015 -2.087 v -8.055 c -0.203 -3.709 -2.174 -4.013 -2.174 -5.332 c 0 -0.612 0.523 -1.258 1.392 -1.258 h 8.596 c 1.159 0 1.563 0.62 1.563 2.011 v 10.837 c 0 1.159 0.503 1.565 0.851 1.565 c 0.696 0 1.276 -0.406 2.55 -1.681 C 56.567 38.48 59.349 31.7 59.349 31.7 c 0.348 -0.811 0.989 -1.547 2.38 -1.547 h 5.47 c 1.654 0 2.002 0.852 1.654 2.011 c -0.695 3.187 -7.36 12.575 -7.36 12.575 c -0.58 0.927 -0.811 1.391 0 2.434 c 0.579 0.812 2.492 2.434 3.767 3.941 c 2.35 2.643 4.12 4.873 4.614 6.41 C 70.324 59.066 69.543 59.847 67.98 59.847 z" style="stroke: none; stroke-width: 1; stroke-dasharray: none; stroke-linecap: butt; stroke-linejoin: miter; stroke-miterlimit: 10; fill: #2198D5; fill-rule: nonzero; opacity: 1;" transform=" matrix(1 0 0 1 0 0) " stroke-linecap="round" />
</g>
</svg>